HIERARCHY
ROOT Hips
{
 OFFSET 0.000000 0.000000 0.000000
 CHANNELS 6 Xposition Yposition Zposition Yrotation Xrotation Zrotation
 JOINT Chest
 {
  OFFSET 0.000000 9.857222 0.000240
  CHANNELS 3 Yrotation Xrotation Zrotation
  JOINT Chest2
  {
   OFFSET 0.000000 10.876940 -0.000436
   CHANNELS 3 Yrotation Xrotation Zrotation
   JOINT Chest3
   {
    OFFSET 0.000000 9.827798 0.000000
    CHANNELS 3 Yrotation Xrotation Zrotation
    JOINT Chest4
    {
     OFFSET 0.000000 9.827798 0.000000
     CHANNELS 3 Yrotation Xrotation Zrotation
     JOINT Neck
     {
      OFFSET 0.000000 13.831992 0.000000
      CHANNELS 3 Yrotation Xrotation Zrotation
      JOINT Head
      {
       OFFSET 0.000000 9.147643 -0.001036
       CHANNELS 3 Yrotation Xrotation Zrotation
       End Site
       {
        OFFSET 0.000000 17.515799 -0.000541
       }
      }
     }
     JOINT RightCollar
     {
      OFFSET -3.001579 7.717577 0.000000
      CHANNELS 3 Yrotation Xrotation Zrotation
      JOINT RightShoulder
      {
       OFFSET -14.002642 0.000000 0.000000
       CHANNELS 3 Yrotation Xrotation Zrotation
       JOINT RightElbow
       {
        OFFSET -30.053852 0.000000 0.000000
        CHANNELS 3 Yrotation Xrotation Zrotation
        JOINT RightWrist
        {
         OFFSET -24.564923 0.000000 -0.000000
         CHANNELS 3 Yrotation Xrotation Zrotation
         End Site
         {
          OFFSET -18.334355 0.000000 0.000000
         }
        }
       }
      }
     }
     JOINT LeftCollar
     {
      OFFSET 3.001579 7.717577 0.000000
      CHANNELS 3 Yrotation Xrotation Zrotation
      JOINT LeftShoulder
      {
       OFFSET 14.002642 0.000000 0.000000
       CHANNELS 3 Yrotation Xrotation Zrotation
       JOINT LeftElbow
       {
        OFFSET 30.053852 0.000000 0.000000
        CHANNELS 3 Yrotation Xrotation Zrotation
        JOINT LeftWrist
        {
         OFFSET 24.564923 0.000000 -0.000000
         CHANNELS 3 Yrotation Xrotation Zrotation
         End Site
         {
          OFFSET 18.334355 0.000000 0.000000
         }
        }
       }
      }
     }
    }
   }
  }
 }
 JOINT RightHip
 {
  OFFSET -8.003235 -0.001175 -0.000120
  CHANNELS 3 Yrotation Xrotation Zrotation
  JOINT RightKnee
  {
   OFFSET 0.000000 -41.759727 0.000113
   CHANNELS 3 Yrotation Xrotation Zrotation
   JOINT RightAnkle
   {
    OFFSET 0.000000 -40.728748 0.000159
    CHANNELS 3 Yrotation Xrotation Zrotation
    JOINT RightToe
    {
     OFFSET 0.000000 -6.515296 14.732841
     CHANNELS 3 Yrotation Xrotation Zrotation
     End Site
     {
      OFFSET 0.000000 -1.502839 6.412115
     }
    }
   }
  }
 }
 JOINT LeftHip
 {
  OFFSET 8.003235 -0.001175 -0.000120
  CHANNELS 3 Yrotation Xrotation Zrotation
  JOINT LeftKnee
  {
   OFFSET 0.000000 -41.759727 0.000113
   CHANNELS 3 Yrotation Xrotation Zrotation
   JOINT LeftAnkle
   {
    OFFSET 0.000000 -40.728748 0.000159
    CHANNELS 3 Yrotation Xrotation Zrotation
    JOINT LeftToe
    {
     OFFSET 0.000000 -6.515296 14.732841
     CHANNELS 3 Yrotation Xrotation Zrotation
     End Site
     {
      OFFSET 0.000000 -1.502839 6.412115
     }
    }
   }
  }
 }
}
MOTION
Frames: 15
Frame Time: 0.016667
0.000000 88.822259 0.000000 0.000000 -5.826342 0.000000 0.000000 11.116423 0.000000 0.000000 -5.290081 0.000000 0.000000 0.000000 0.000000 0.000000 0.000000 0.000000 0.000000 12.665069 0.000000 0.000000 0.575450 0.000000 0.000000 0.000000 0.000000 0.000000 0.000000 0.000000 2.337306 0.000000 0.000000 -2.337306 0.000000 0.000000 0.000000 0.000000 0.000000 0.000000 0.000000 0.000000 -2.337306 0.000000 0.000000 2.337306 0.000000 0.000000 0.000000 8.578828 0.000000 0.000000 1.905768 0.000000 0.000000 -4.658254 0.000000 0.000000 0.000000 0.000000 0.000000 8.578828 0.000000 0.000000 1.905768 0.000000 0.000000 -4.658254 0.000000 0.000000 0.000000 0.000000
9.259015 90.541202 13.839900 -34.891962 -19.151538 -0.421239 1.883347 9.200830 0.144975 0.774670 4.132302 0.007769 0.774670 4.132302 0.007769 0.580698 3.099242 0.000579 -3.178895 19.899511 1.337492 -6.208932 0.903041 3.414985 7.753921 1.778197 10.594152 45.789331 -9.973212 85.387158 6.938392 3.045682 0.036867 -7.171840 2.144744 -4.650340 -22.943240 3.550256 -12.071244 -31.912945 9.312876 -66.039642 -24.107483 -48.613581 1.486743 2.865473 5.172750 4.623288 6.518507 27.695145 0.823679 -2.733876 -5.257503 3.539011 -0.606266 -3.268627 -1.779760 -0.090900 0.062959 -0.083053 -1.836438 20.159324 -0.133954 1.059337 1.572980 -0.682577 1.819809 -3.459953 0.609781 0.004776 0.075700 -0.008132
9.256871 90.539992 13.836720 -34.903851 -19.152890 -0.421339 1.896073 9.194399 0.147135 0.778555 4.129841 0.008028 0.778555 4.129841 0.008028 0.583608 3.097397 0.000749 -3.180302 19.903528 1.340197 -6.212146 0.910745 3.420125 7.747418 1.777408 10.594129 45.793056 -9.964614 85.391270 6.941550 3.032560 0.035389 -7.166315 2.152994 -4.653740 -22.945401 3.551844 -12.070433 -31.891786 9.312399 -66.043625 -24.110154 -48.613793 1.463030 2.850927 5.138121 4.621728 6.545412 27.692582 0.828055 -2.786284 -5.253733 3.562760 -0.581251 -3.263372 -1.782032 -0.089733 0.058365 -0.082841 -1.798685 20.163949 -0.123497 1.054761 1.568698 -0.672391 1.795514 -3.460201 0.606084 0.005713 0.077832 -0.008636
9.252310 90.539299 13.846105 -34.897134 -19.176404 -0.409414 1.882804 9.207695 0.132472 0.782090 4.126013 0.008933 0.782090 4.126013 0.008933 0.586253 3.094527 0.001409 -3.176215 19.909489 1.338888 -6.204028 0.921487 3.416169 7.741349 1.781427 10.592837 45.771126 -9.960596 85.395945 6.936372 3.055236 0.029206 -7.158181 2.162863 -4.650191 -22.947127 3.558964 -12.073409 -31.882377 9.312385 -66.053640 -24.113697 -48.653309 1.452149 2.837883 5.127307 4.619664 6.437245 27.742138 0.756784 -2.751487 -5.271306 3.596009 -0.560545 -3.267731 -1.783406 -0.094126 0.059206 -0.083206 -1.822516 20.192620 -0.149542 1.062261 1.569779 -0.661374 1.814468 -3.461050 0.602778 0.006602 0.072787 -0.008654
9.244809 90.539343 13.860453 -34.886498 -19.211214 -0.409456 1.864057 9.227542 0.124599 0.785664 4.123475 0.008869 0.785664 4.123475 0.008869 0.588934 3.092624 0.001340 -3.166469 19.915975 1.339848 -6.186267 0.933028 3.414596 7.738499 1.787719 10.601466 45.721794 -9.963369 85.387489 6.931678 3.100127 0.052936 -7.156712 2.172560 -4.657662 -22.951524 3.571287 -12.070430 -31.882204 9.305564 -66.068667 -24.114668 -48.675090 1.460875 2.823111 5.104513 4.622702 6.318429 27.794844 0.709232 -2.678801 -5.283807 3.603247 -0.576982 -3.256127 -1.794129 -0.063428 0.043536 -0.067339 -1.834313 20.233267 -0.170040 1.041861 1.576893 -0.635702 1.840845 -3.461612 0.594371 0.003823 0.061092 -0.009109
9.236265 90.537375 13.858702 -34.940152 -19.185531 -0.421739 1.907301 9.186258 0.151823 0.787725 4.121523 0.009105 0.787725 4.121523 0.009105 0.590477 3.091160 0.001505 -3.155803 19.919347 1.337851 -6.166063 0.938553 3.407525 7.737712 1.794144 10.602989 45.672980 -9.964422 85.367445 6.926108 3.145626 0.089828 -7.153272 2.175538 -4.666498 -22.956607 3.574120 -12.071540 -31.891482 9.311752 -66.080865 -24.110785 -48.696534 1.469516 2.810035 5.081292 4.626623 6.381834 27.754697 0.750818 -2.693658 -5.269195 3.596880 -0.577576 -3.263397 -1.789402 -0.063841 0.047155 -0.065999 -1.757078 20.206836 -0.126088 0.987277 1.598317 -0.638348 1.862572 -3.494610 0.590904 0.003534 0.075145 -0.007417
9.222826 90.536429 13.854984 -34.969418 -19.173959 -0.418408 1.923230 9.163846 0.158545 0.790906 4.116354 0.009046 0.790906 4.116354 0.009046 0.592863 3.087284 0.001447 -3.149699 19.922015 1.334797 -6.153883 0.942967 3.399956 7.734609 1.812531 10.604941 45.640127 -9.967793 85.345869 6.918505 3.171711 0.122676 -7.155768 2.185777 -4.677308 -22.963973 3.590921 -12.076562 -31.906989 9.313977 -66.085332 -24.108760 -48.731928 1.476252 2.798956 5.068570 4.633215 6.398070 27.736008 0.756680 -2.692865 -5.260969 3.596580 -0.566947 -3.262455 -1.787622 -0.068572 0.044984 -0.064741 -1.725495 20.190232 -0.089701 0.926626 1.622081 -0.679698 1.875533 -3.509577 0.602017 0.007577 0.072738 -0.003911
9.206508 90.535256 13.853960 -34.984291 -19.179877 -0.404713 1.920708 9.159079 0.146543 0.793793 4.111248 0.008840 0.793793 4.111248 0.008840 0.595030 3.083454 0.001279 -3.144547 19.924242 1.331388 -6.143352 0.946593 3.392057 7.736318 1.829693 10.609329 45.635211 -9.968996 85.331752 6.905719 3.183963 0.132727 -7.154588 2.195295 -4.674394 -22.969910 3.613032 -12.078443 -31.914524 9.316105 -66.082508 -24.108402 -48.749358 1.477653 2.791312 5.047467 4.637543 6.329577 27.753427 0.715521 -2.641709 -5.268305 3.601729 -0.544948 -3.266263 -1.781860 -0.087313 0.048062 -0.070220 -1.698455 20.194620 -0.054848 0.869745 1.639274 -0.737329 1.893324 -3.519173 0.617920 0.011007 0.067905 -0.000204
9.196655 90.533754 13.850254 -35.011898 -19.183448 -0.396440 1.931837 9.145868 0.145345 0.796765 4.109018 0.008811 0.796765 4.109018 0.008811 0.597258 3.081781 0.001240 -3.143909 19.926209 1.326267 -6.140537 0.949884 3.382426 7.736218 1.850452 10.606304 45.648528 -9.975942 85.332771 6.893205 3.183374 0.129192 -7.155563 2.201502 -4.671116 -22.976906 3.632636 -12.080614 -31.916366 9.319944 -66.076958 -24.109181 -48.754351 1.473364 2.789019 5.041215 4.638797 6.361648 27.745463 0.717356 -2.658688 -5.251129 3.611653 -0.529194 -3.271843 -1.780515 -0.097603 0.049715 -0.071887 -1.699544 20.192843 -0.052497 0.867929 1.658937 -0.749513 1.893242 -3.528953 0.619207 0.007477 0.065399 0.000532
9.194161 90.531801 13.841938 -35.061197 -19.168861 -0.400840 1.968637 9.110747 0.164485 0.799412 4.107144 0.008502 0.799412 4.107144 0.008502 0.599244 3.080375 0.000993 -3.145562 19.930607 1.322285 -6.142138 0.957884 3.375436 7.739941 1.878352 10.602395 45.666921 -9.992252 85.339711 6.879585 3.175387 0.121265 -7.151428 2.200947 -4.673458 -22.984028 3.656507 -12.084491 -31.920493 9.312210 -66.076215 -24.101971 -48.729313 1.470249 2.792882 5.043190 4.633893 6.445065 27.715260 0.757005 -2.695736 -5.239228 3.608284 -0.511302 -3.279335 -1.774576 -0.105216 0.060451 -0.073259 -1.683838 20.169495 -0.049062 0.885011 1.681603 -0.730283 1.898592 -3.549414 0.606062 0.002484 0.075117 0.000201
9.186279 90.532367 13.842800 -35.056122 -19.205136 -0.395932 1.948705 9.127877 0.156034 0.803400 4.101953 0.008578 0.803400 4.101953 0.008578 0.602235 3.076482 0.001031 -3.149562 19.938644 1.322383 -6.149107 0.973024 3.376400 7.747632 1.904077 10.602207 45.688215 -9.988963 85.351946 6.880644 3.154328 0.108644 -7.147204 2.204745 -4.669388 -22.990772 3.684849 -12.090031 -31.925296 9.306517 -66.070281 -24.081591 -48.690984 1.450816 2.798284 5.041344 4.621989 6.388798 27.759973 0.743594 -2.673975 -5.253045 3.603002 -0.519421 -3.257219 -1.784473 -0.079553 0.046710 -0.060358 -1.727644 20.198006 -0.061444 0.890268 1.701714 -0.737596 1.929905 -3.546653 0.601703 0.004584 0.062563 0.002190
9.181956 90.530869 13.843955 -35.082620 -19.218908 -0.390435 1.957244 9.119426 0.156046 0.808344 4.096213 0.008316 0.808344 4.096213 0.008316 0.605944 3.072177 0.000808 -3.159030 19.946682 1.328600 -6.167909 0.988859 3.390174 7.759818 1.929106 10.605883 45.697970 -9.980893 85.368059 6.885425 3.145308 0.095743 -7.143044 2.208826 -4.661816 -22.996938 3.714291 -12.095475 -31.923101 9.305032 -66.055480 -24.050229 -48.659634 1.412199 2.803647 5.046513 4.606011 6.385663 27.776089 0.737423 -2.662190 -5.258143 3.604036 -0.507279 -3.254626 -1.785248 -0.073749 0.049231 -0.055905 -1.721402 20.210118 -0.085304 0.878291 1.714438 -0.697740 1.932722 -3.555599 0.582371 0.001385 0.063594 0.001637
9.181356 90.529379 13.848127 -35.113201 -19.231920 -0.387887 1.968160 9.108395 0.158386 0.812968 4.091042 0.009265 0.812968 4.091042 0.009265 0.609404 3.068300 0.001495 -3.172301 19.954592 1.341676 -6.195740 1.005107 3.417605 7.777176 1.957834 10.606508 45.694634 -9.978131 85.373843 6.884716 3.150031 0.097744 -7.137142 2.208516 -4.654871 -22.991969 3.741940 -12.106429 -31.929006 9.305954 -66.030510 -24.016744 -48.626143 1.367351 2.816712 5.052198 4.586981 6.390552 27.792167 0.735427 -2.642616 -5.266155 3.604441 -0.525088 -3.248647 -1.782788 -0.070446 0.048986 -0.052698 -1.732211 20.220678 -0.105156 0.879938 1.730795 -0.676548 1.949400 -3.570359 0.573291 -0.000843 0.066926 0.001441
9.174486 90.528871 13.846473 -35.130572 -19.251595 -0.397289 1.971499 9.107349 0.169516 0.818098 4.086545 0.010603 0.818098 4.086545 0.010603 0.613242 3.064929 0.002470 -3.190553 19.959838 1.360434 -6.234496 1.017072 3.457040 7.788327 1.983861 10.606514 45.681277 -9.976790 85.371406 6.885919 3.160977 0.111229 -7.134571 2.213353 -4.650070 -22.987784 3.772019 -12.119048 -31.934162 9.300850 -65.999414 -23.983305 -48.583085 1.323149 2.834019 5.070906 4.570393 6.429908 27.811368 0.779391 -2.642873 -5.271677 3.586568 -0.550452 -3.244271 -1.790742 -0.043674 0.048522 -0.039909 -1.873081 20.232970 -0.140040 0.975094 1.754545 -0.681165 1.992706 -3.588334 0.568818 0.000042 0.070649 0.002535
9.180685 90.528046 13.845442 -35.161799 -19.254554 -0.409212 1.988741 9.091821 0.185307 0.824948 4.079968 0.012642 0.824948 4.079968 0.012642 0.618365 3.059999 0.003962 -3.211973 19.968020 1.382443 -6.279881 1.034892 3.503196 7.800267 2.010993 10.607792 45.656138 -9.970393 85.365413 6.882261 3.177866 0.133949 -7.138852 2.213532 -4.652593 -22.986447 3.806330 -12.131180 -31.935291 9.288956 -65.976079 -23.947482 -48.509717 1.278087 2.853667 5.089983 4.552414 6.554501 27.800530 0.855030 -2.697884 -5.268050 3.572910 -0.597144 -3.235909 -1.797258 -0.012446 0.046285 -0.026507 -2.004815 20.233559 -0.212625 1.091353 1.759895 -0.620691 1.999847 -3.597295 0.549525 -0.009964 0.078474 -0.001307
